<svg width="43" height="43" viewBox="0 0 43 43" fill="none" xmlns="http://www.w3.org/2000/svg">
<g filter="url(#filter0_d_99_7156)">
<path d="M17.0833 0C26.5185 0 34.1667 7.64821 34.1667 17.0833C34.1667 26.5185 26.5185 34.1667 17.0833 34.1667C7.64821 34.1667 0 26.5185 0 17.0833C0 7.64821 7.64821 0 17.0833 0ZM17.0662 13.6667H15.375C14.9396 13.6671 14.5208 13.8339 14.2042 14.1328C13.8875 14.4317 13.697 14.8402 13.6715 15.2749C13.646 15.7096 13.7874 16.1376 14.0669 16.4715C14.3463 16.8054 14.7428 17.0199 15.1751 17.0714L15.375 17.0833V25.6079C15.375 26.4963 16.0481 27.2308 16.9125 27.3231L17.1004 27.3333H17.9375C18.2968 27.3333 18.6469 27.2201 18.9381 27.0096C19.2293 26.7992 19.4468 26.5023 19.5595 26.1612C19.6723 25.82 19.6747 25.452 19.5662 25.1095C19.4578 24.767 19.2442 24.4673 18.9557 24.2532L18.7917 24.1456V15.3921C18.7917 14.5038 18.1186 13.7692 17.2542 13.6769L17.0662 13.6667ZM17.0833 8.54167C16.6303 8.54167 16.1957 8.72165 15.8754 9.04203C15.555 9.3624 15.375 9.79692 15.375 10.25C15.375 10.7031 15.555 11.1376 15.8754 11.458C16.1957 11.7783 16.6303 11.9583 17.0833 11.9583C17.5364 11.9583 17.9709 11.7783 18.2913 11.458C18.6117 11.1376 18.7917 10.7031 18.7917 10.25C18.7917 9.79692 18.6117 9.3624 18.2913 9.04203C17.9709 8.72165 17.5364 8.54167 17.0833 8.54167Z" fill="#FFFAFA"/>
</g>
<defs>
<filter id="filter0_d_99_7156" x="0" y="0" width="42.1667" height="42.1666" filterUnits="userSpaceOnUse" color-interpolation-filters="sRGB">
<feFlood flood-opacity="0" result="BackgroundImageFix"/>
<feColorMatrix in="SourceAlpha" type="matrix" values="0 0 0 0 0 0 0 0 0 0 0 0 0 0 0 0 0 0 127 0" result="hardAlpha"/>
<feOffset dx="4" dy="4"/>
<feGaussianBlur stdDeviation="2"/>
<feComposite in2="hardAlpha" operator="out"/>
<feColorMatrix type="matrix" values="0 0 0 0 0 0 0 0 0 0 0 0 0 0 0 0 0 0 0.15 0"/>
<feBlend mode="normal" in2="BackgroundImageFix" result="effect1_dropShadow_99_7156"/>
<feBlend mode="normal" in="SourceGraphic" in2="effect1_dropShadow_99_7156" result="shape"/>
</filter>
</defs>
</svg>
