<svg width="92" height="92" viewBox="0 0 92 92" fill="none" xmlns="http://www.w3.org/2000/svg">
<g filter="url(#filter0_f_468_5053)">
<circle cx="46" cy="46" r="39" fill="#003366"/>
</g>
<path d="M46.1433 18.6239C50.861 18.7453 53.6052 25.468 54.8917 26.9606C56.1783 28.4532 63.4453 27.7035 65.0351 32.3496C66.6249 36.9957 60.7583 40.9816 59.9349 43.0541C59.1115 45.1266 61.5677 51.9478 57.8191 54.5582C54.0098 57.2109 48.1503 52.3826 46.1433 52.331C44.1363 52.2793 39.1564 57.2999 34.4675 54.5582C29.7787 51.8165 32.3517 43.0541 32.3517 43.0541C32.3517 43.0541 24.5811 37.3558 27.2515 32.3496C29.9219 27.3434 34.4675 28.659 36.9318 26.9606C39.396 25.2622 41.2931 18.4991 46.1433 18.6239Z" fill="white"/>
<path d="M37.4995 34.0605C37.7829 35.2952 38.6596 36.0786 39.9182 36.2219C41.2061 36.3685 42.3239 35.5018 42.8515 34.3179" stroke="#00233F" stroke-linecap="round"/>
<path d="M45.116 36.2219C45.2304 36.6888 45.5845 36.985 46.0927 37.0392C46.6128 37.0946 47.0643 36.7669 47.2773 36.3192" stroke="#00233F" stroke-width="0.5" stroke-linecap="round"/>
<path d="M49.3357 34.0605C49.619 35.2952 50.4958 36.0786 51.7544 36.2219C53.0423 36.3685 54.1601 35.5018 54.6877 34.3179" stroke="#00233F" stroke-linecap="round"/>
<path d="M49.3828 74.3387H41.9473V71.2098H49.3828V74.3387ZM43.418 73.2196H47.918V72.3231H43.418V73.2196ZM50.0332 65.6727H41.2793V64.5536H50.0332V65.6727ZM45.6797 65.954C46.8516 65.954 47.7402 66.0809 48.3457 66.3348C48.9551 66.5887 49.2598 66.9677 49.2598 67.4716C49.2598 67.9716 48.9531 68.3505 48.3398 68.6083C47.7305 68.8661 46.8438 68.995 45.6797 68.995C44.5234 68.995 43.6348 68.8661 43.0137 68.6083C42.3965 68.3505 42.0879 67.9716 42.0879 67.4716C42.0879 66.9716 42.3965 66.5946 43.0137 66.3407C43.6348 66.0829 44.5234 65.954 45.6797 65.954ZM45.6797 66.9559C45.1992 66.9559 44.8184 66.9735 44.5371 67.0087C44.2559 67.0438 44.043 67.0985 43.8984 67.1727C43.7578 67.2469 43.6875 67.3466 43.6875 67.4716C43.6875 67.5887 43.7598 67.6864 43.9043 67.7645C44.0488 67.8387 44.2656 67.8954 44.5547 67.9344C44.8438 67.9696 45.2188 67.9891 45.6797 67.993C46.1484 67.9891 46.5254 67.9696 46.8105 67.9344C47.0996 67.8954 47.3145 67.8387 47.4551 67.7645C47.5957 67.6864 47.666 67.5887 47.666 67.4716C47.666 67.3466 47.5957 67.2469 47.4551 67.1727C47.3145 67.0985 47.1035 67.0438 46.8223 67.0087C46.541 66.9735 46.1602 66.9559 45.6797 66.9559ZM46.4238 65.3563H44.9238V63.6981H46.4238V65.3563ZM50.5488 70.6708H40.8223V69.5048H50.5488V70.6708ZM46.4238 70.1376H44.9238V68.6141H46.4238V70.1376Z" fill="white"/>
<defs>
<filter id="filter0_f_468_5053" x="0" y="0" width="92" height="92" filterUnits="userSpaceOnUse" color-interpolation-filters="sRGB">
<feFlood flood-opacity="0" result="BackgroundImageFix"/>
<feBlend mode="normal" in="SourceGraphic" in2="BackgroundImageFix" result="shape"/>
<feGaussianBlur stdDeviation="3.5" result="effect1_foregroundBlur_468_5053"/>
</filter>
</defs>
</svg>
