<svg width="38" height="73" viewBox="0 0 38 73" fill="none" xmlns="http://www.w3.org/2000/svg">
<circle cx="19.5" cy="20.25" r="5.5" fill="#B7B7B7"/>
<path d="M19 29.75C13.4 29.75 7 32.25 7 34.75V38.25C7 39.05 8 39.25 8.5 39.25H30C30.8 39.25 31 38.5833 31 38.25V34.75C31 32.25 24.6 29.75 19 29.75Z" fill="#B7B7B7"/>
<path d="M13.5723 57.0859H3.82227V55.8555H13.5723V57.0859ZM12.7578 49.7969H4.57812V48.5957H12.7578V49.7969ZM12.7109 54.209H4.63086V53.0254H12.7109V54.209ZM7.54883 53.1426H6.05469V49.6797H7.54883V53.1426ZM11.2578 53.1426H9.78711V49.6797H11.2578V53.1426ZM23.7034 57.1445H13.9534V55.9199H23.7034V57.1445ZM19.5432 56.4297H18.0725V53.8984H19.5432V56.4297ZM22.5784 51.8887H16.5666V53.7109H15.0784V50.7168H21.1018V49.5566H15.0608V48.3555H22.5784V51.8887ZM22.8303 54.3027H15.0784V53.0898H22.8303V54.3027ZM33.0317 53.1367H31.5259V47.6523H33.0317V53.1367ZM33.0317 56.4062H27.2837V57.7246H25.8013V55.3398H31.5493V54.7188H25.7778V53.5586H33.0317V56.4062ZM33.3305 58.252H25.8013V57.0801H33.3305V58.252ZM30.3364 49.457H24.5415V48.3145H30.3364V49.457ZM24.2544 51.7539C25.4888 51.75 26.647 51.7266 27.729 51.6836C28.8149 51.6406 29.8227 51.5645 30.7524 51.4551L30.8169 52.5273C29.8598 52.6797 28.8384 52.7852 27.7524 52.8438C26.6665 52.8984 25.5552 52.9258 24.4184 52.9258L24.2544 51.7539ZM26.8325 52.3398H25.397V48.8359H26.8325V52.3398ZM29.4516 52.3398H28.022V48.8359H29.4516V52.3398Z" fill="#B7B7B7"/>
</svg>
