<svg width="92" height="92" viewBox="0 0 92 92" fill="none" xmlns="http://www.w3.org/2000/svg">
<g filter="url(#filter0_f_468_5081)">
<circle cx="46" cy="46" r="39" fill="#003366"/>
</g>
<circle cx="46.5" cy="30.25" r="5.5" fill="white"/>
<path d="M46 39.75C40.4 39.75 34 42.25 34 44.75V48.25C34 49.05 35 49.25 35.5 49.25H57C57.8 49.25 58 48.5833 58 48.25V44.75C58 42.25 51.6 39.75 46 39.75Z" fill="white"/>
<path d="M40.5723 67.0859H30.8223V65.8555H40.5723V67.0859ZM39.7578 59.7969H31.5781V58.5957H39.7578V59.7969ZM39.7109 64.209H31.6309V63.0254H39.7109V64.209ZM34.5488 63.1426H33.0547V59.6797H34.5488V63.1426ZM38.2578 63.1426H36.7871V59.6797H38.2578V63.1426ZM50.7034 67.1445H40.9534V65.9199H50.7034V67.1445ZM46.5432 66.4297H45.0725V63.8984H46.5432V66.4297ZM49.5784 61.8887H43.5666V63.7109H42.0784V60.7168H48.1018V59.5566H42.0608V58.3555H49.5784V61.8887ZM49.8303 64.3027H42.0784V63.0898H49.8303V64.3027ZM60.0317 63.1367H58.5259V57.6523H60.0317V63.1367ZM60.0317 66.4062H54.2837V67.7246H52.8013V65.3398H58.5493V64.7188H52.7778V63.5586H60.0317V66.4062ZM60.3305 68.252H52.8013V67.0801H60.3305V68.252ZM57.3364 59.457H51.5415V58.3145H57.3364V59.457ZM51.2544 61.7539C52.4888 61.75 53.647 61.7266 54.729 61.6836C55.8149 61.6406 56.8227 61.5645 57.7524 61.4551L57.8169 62.5273C56.8598 62.6797 55.8384 62.7852 54.7524 62.8438C53.6665 62.8984 52.5552 62.9258 51.4184 62.9258L51.2544 61.7539ZM53.8325 62.3398H52.397V58.8359H53.8325V62.3398ZM56.4516 62.3398H55.022V58.8359H56.4516V62.3398Z" fill="white"/>
<defs>
<filter id="filter0_f_468_5081" x="0" y="0" width="92" height="92" filterUnits="userSpaceOnUse" color-interpolation-filters="sRGB">
<feFlood flood-opacity="0" result="BackgroundImageFix"/>
<feBlend mode="normal" in="SourceGraphic" in2="BackgroundImageFix" result="shape"/>
<feGaussianBlur stdDeviation="3.5" result="effect1_foregroundBlur_468_5081"/>
</filter>
</defs>
</svg>
