<svg width="92" height="92" viewBox="0 0 92 92" fill="none" xmlns="http://www.w3.org/2000/svg">
<g filter="url(#filter0_f_125_7235)">
<circle cx="46" cy="46" r="39" fill="#003366"/>
</g>
<path d="M32 46.6389V38.8611C32 37.8241 33 35.75 35.5 35.75C38 35.75 39 37.8241 39 38.8611V46.6389C39 47.6759 38 49.75 35.5 49.75C33 49.75 32 47.6759 32 46.6389Z" fill="#B7B7B7"/>
<path d="M43 46.75V33.75C43 32.3426 44 30.75 46.5 30.75C49 30.75 50 32.3426 50 33.75V46.75C50 48.1574 49 49.75 46.5 49.75C44 49.75 43 48.1574 43 46.75Z" fill="#B7B7B7"/>
<path d="M53 46.75V27.75C53 25.8981 54 24.25 56.5 24.25C59 24.25 60 25.8981 60 27.75V46.75C60 48.6019 59 49.75 56.5 49.75C54 49.75 53 48.6019 53 46.75Z" fill="#B7B7B7"/>
<path d="M44.7812 68.8281H43.2637V58.1523H44.7812V68.8281ZM41.5879 59.2773C41.5879 60.4219 41.4336 61.4609 41.125 62.3945C40.8203 63.3242 40.3027 64.1797 39.5723 64.9609C38.8418 65.7383 37.8633 66.418 36.6367 67L35.8516 65.8047C36.8789 65.3203 37.7031 64.7754 38.3242 64.1699C38.9453 63.5645 39.3965 62.8848 39.6777 62.1309C39.959 61.377 40.0996 60.5137 40.0996 59.541V59.2773H41.5879ZM40.7852 60.4551H36.4199V59.2773H40.7852V60.4551ZM55.6916 65.0781H45.9416V63.8828H55.6916V65.0781ZM54.5139 61.2578H48.6428V62.418H47.1545V60.1797H53.0139V59.5234H47.137V58.3633H54.5139V61.2578ZM54.7131 63.1152H47.1545V61.9668H54.7131V63.1152ZM51.5549 64.5391H50.0725V62.5059H51.5549V64.5391ZM54.5725 68.7871H53.0666V66.8535H47.0256V65.6816H54.5725V68.7871Z" fill="white"/>
<defs>
<filter id="filter0_f_125_7235" x="0" y="0" width="92" height="92" filterUnits="userSpaceOnUse" color-interpolation-filters="sRGB">
<feFlood flood-opacity="0" result="BackgroundImageFix"/>
<feBlend mode="normal" in="SourceGraphic" in2="BackgroundImageFix" result="shape"/>
<feGaussianBlur stdDeviation="3.5" result="effect1_foregroundBlur_125_7235"/>
</filter>
</defs>
</svg>
