<svg width="39" height="37" viewBox="0 0 39 37" fill="none" xmlns="http://www.w3.org/2000/svg">
<path d="M19.6433 0.123897C24.361 0.245263 27.1052 6.96804 28.3917 8.4606C29.6783 9.95317 36.9453 9.20345 38.5351 13.8496C40.1249 18.4957 34.2583 22.4816 33.4349 24.5541C32.6115 26.6266 35.0677 33.4478 31.3191 36.0582C27.5098 38.7109 21.6503 33.8826 19.6433 33.831C17.6363 33.7793 12.6564 38.7999 7.96754 36.0582C3.27868 33.3165 5.85172 24.5541 5.85172 24.5541C5.85172 24.5541 -1.9189 18.8558 0.751517 13.8496C3.42194 8.84341 7.96754 10.159 10.4318 8.4606C12.896 6.76219 14.7931 -0.000878446 19.6433 0.123897Z" fill="#B7B7B7"/>
<path d="M10.9995 15.5605C11.2829 16.7952 12.1596 17.5786 13.4182 17.7219C14.7061 17.8685 15.8239 17.0018 16.3515 15.8179" stroke="#00233F" stroke-linecap="round"/>
<path d="M18.616 17.7219C18.7304 18.1888 19.0845 18.485 19.5927 18.5392C20.1128 18.5946 20.5643 18.2669 20.7773 17.8192" stroke="#00233F" stroke-width="0.5" stroke-linecap="round"/>
<path d="M22.8357 15.5605C23.119 16.7952 23.9958 17.5786 25.2544 17.7219C26.5423 17.8685 27.6601 17.0018 28.1877 15.8179" stroke="#00233F" stroke-linecap="round"/>
</svg>
