<svg width="40" height="73" viewBox="0 0 40 73" fill="none" xmlns="http://www.w3.org/2000/svg">
<path d="M20.1433 8.6239C24.861 8.74526 27.6052 15.468 28.8917 16.9606C30.1783 18.4532 37.4453 17.7035 39.0351 22.3496C40.6249 26.9957 34.7583 30.9816 33.9349 33.0541C33.1115 35.1266 35.5677 41.9478 31.8191 44.5582C28.0098 47.2109 22.1503 42.3826 20.1433 42.331C18.1363 42.2793 13.1564 47.2999 8.46754 44.5582C3.77868 41.8165 6.35172 33.0541 6.35172 33.0541C6.35172 33.0541 -1.4189 27.3558 1.25152 22.3496C3.92194 17.3434 8.46754 18.659 10.9318 16.9606C13.396 15.2622 15.2931 8.49912 20.1433 8.6239Z" fill="#B7B7B7"/>
<path d="M11.4995 24.0605C11.7829 25.2952 12.6596 26.0786 13.9182 26.2219C15.2061 26.3685 16.3239 25.5018 16.8515 24.3179" stroke="#00233F" stroke-linecap="round"/>
<path d="M19.116 26.2219C19.2304 26.6888 19.5845 26.985 20.0927 27.0392C20.6128 27.0946 21.0643 26.7669 21.2773 26.3192" stroke="#00233F" stroke-width="0.5" stroke-linecap="round"/>
<path d="M23.3357 24.0605C23.619 25.2952 24.4958 26.0786 25.7544 26.2219C27.0423 26.3685 28.1601 25.5018 28.6877 24.3179" stroke="#00233F" stroke-linecap="round"/>
<path d="M23.3828 64.3387H15.9473V61.2098H23.3828V64.3387ZM17.418 63.2196H21.918V62.3231H17.418V63.2196ZM24.0332 55.6727H15.2793V54.5536H24.0332V55.6727ZM19.6797 55.954C20.8516 55.954 21.7402 56.0809 22.3457 56.3348C22.9551 56.5887 23.2598 56.9677 23.2598 57.4716C23.2598 57.9716 22.9531 58.3505 22.3398 58.6083C21.7305 58.8661 20.8438 58.995 19.6797 58.995C18.5234 58.995 17.6348 58.8661 17.0137 58.6083C16.3965 58.3505 16.0879 57.9716 16.0879 57.4716C16.0879 56.9716 16.3965 56.5946 17.0137 56.3407C17.6348 56.0829 18.5234 55.954 19.6797 55.954ZM19.6797 56.9559C19.1992 56.9559 18.8184 56.9735 18.5371 57.0087C18.2559 57.0438 18.043 57.0985 17.8984 57.1727C17.7578 57.2469 17.6875 57.3466 17.6875 57.4716C17.6875 57.5887 17.7598 57.6864 17.9043 57.7645C18.0488 57.8387 18.2656 57.8954 18.5547 57.9344C18.8438 57.9696 19.2188 57.9891 19.6797 57.993C20.1484 57.9891 20.5254 57.9696 20.8105 57.9344C21.0996 57.8954 21.3145 57.8387 21.4551 57.7645C21.5957 57.6864 21.666 57.5887 21.666 57.4716C21.666 57.3466 21.5957 57.2469 21.4551 57.1727C21.3145 57.0985 21.1035 57.0438 20.8223 57.0087C20.541 56.9735 20.1602 56.9559 19.6797 56.9559ZM20.4238 55.3563H18.9238V53.6981H20.4238V55.3563ZM24.5488 60.6708H14.8223V59.5048H24.5488V60.6708ZM20.4238 60.1376H18.9238V58.6141H20.4238V60.1376Z" fill="#B7B7B7"/>
</svg>
