<svg width="38" height="73" viewBox="0 0 38 73" fill="none" xmlns="http://www.w3.org/2000/svg">
<path d="M5 36.6389V28.8611C5 27.8241 6 25.75 8.5 25.75C11 25.75 12 27.8241 12 28.8611V36.6389C12 37.6759 11 39.75 8.5 39.75C6 39.75 5 37.6759 5 36.6389Z" fill="#B7B7B7"/>
<path d="M16 36.75V23.75C16 22.3426 17 20.75 19.5 20.75C22 20.75 23 22.3426 23 23.75V36.75C23 38.1574 22 39.75 19.5 39.75C17 39.75 16 38.1574 16 36.75Z" fill="#B7B7B7"/>
<path d="M26 36.75V17.75C26 15.8981 27 14.25 29.5 14.25C32 14.25 33 15.8981 33 17.75V36.75C33 38.6019 32 39.75 29.5 39.75C27 39.75 26 38.6019 26 36.75Z" fill="#B7B7B7"/>
<path d="M17.7812 58.8281H16.2637V48.1523H17.7812V58.8281ZM14.5879 49.2773C14.5879 50.4219 14.4336 51.4609 14.125 52.3945C13.8203 53.3242 13.3027 54.1797 12.5723 54.9609C11.8418 55.7383 10.8633 56.418 9.63672 57L8.85156 55.8047C9.87891 55.3203 10.7031 54.7754 11.3242 54.1699C11.9453 53.5645 12.3965 52.8848 12.6777 52.1309C12.959 51.377 13.0996 50.5137 13.0996 49.541V49.2773H14.5879ZM13.7852 50.4551H9.41992V49.2773H13.7852V50.4551ZM28.6916 55.0781H18.9416V53.8828H28.6916V55.0781ZM27.5139 51.2578H21.6428V52.418H20.1545V50.1797H26.0139V49.5234H20.137V48.3633H27.5139V51.2578ZM27.7131 53.1152H20.1545V51.9668H27.7131V53.1152ZM24.5549 54.5391H23.0725V52.5059H24.5549V54.5391ZM27.5725 58.7871H26.0666V56.8535H20.0256V55.6816H27.5725V58.7871Z" fill="#B7B7B7"/>
</svg>
