<svg width="39" height="39" viewBox="0 0 39 39" fill="none" xmlns="http://www.w3.org/2000/svg">
<circle cx="19.5" cy="19.5" r="19.5" fill="black" fill-opacity="0.75"/>
<path d="M29.38 31.2L21.1901 23.01C20.54 23.53 19.7925 23.9417 18.9475 24.245C18.1025 24.5483 17.2034 24.7 16.25 24.7C13.8884 24.7 11.8898 23.8819 10.2544 22.2456C8.61905 20.6093 7.80092 18.6108 7.80005 16.25C7.79918 13.8892 8.61732 11.8907 10.2544 10.2544C11.8916 8.61812 13.8901 7.79999 16.25 7.79999C18.61 7.79999 20.6089 8.61812 22.2469 10.2544C23.8849 11.8907 24.7027 13.8892 24.7001 16.25C24.7001 17.2033 24.5484 18.1025 24.245 18.9475C23.9417 19.7925 23.53 20.54 23.01 21.19L31.2 29.38L29.38 31.2ZM16.25 22.1C17.875 22.1 19.2565 21.5315 20.3944 20.3944C21.5324 19.2573 22.1009 17.8759 22.1 16.25C22.0992 14.6241 21.5306 13.2431 20.3944 12.1069C19.2582 10.9707 17.8768 10.4017 16.25 10.4C14.6233 10.3983 13.2423 10.9672 12.1069 12.1069C10.9716 13.2466 10.4026 14.6276 10.4 16.25C10.3974 17.8724 10.9664 19.2539 12.1069 20.3944C13.2475 21.5349 14.6285 22.1035 16.25 22.1Z" fill="white"/>
</svg>
