<svg width="71" height="71" viewBox="0 0 71 71" fill="none" xmlns="http://www.w3.org/2000/svg">
<g filter="url(#filter0_d_140_4567)">
<circle cx="31.5" cy="31.5" r="31.5" fill="white" fill-opacity="0.85"/>
<path fill-rule="evenodd" clip-rule="evenodd" d="M41.7707 18.2347C40.9799 17.4441 39.9074 17 38.7891 17C37.6709 17 36.5984 17.4441 35.8076 18.2347L34.8137 19.23L41.7721 26.1884L42.7646 25.1945C43.1562 24.8029 43.4669 24.338 43.6789 23.8263C43.8909 23.3146 44 22.7661 44 22.2123C44 21.6584 43.8909 21.1099 43.6789 20.5982C43.4669 20.0865 43.1562 19.6216 42.7646 19.23L41.7707 18.2347ZM39.783 28.1761L32.8246 21.2177L20.0465 33.9972C19.7669 34.2769 19.5716 34.6296 19.4828 35.015L18.0363 41.2775C17.9824 41.51 17.9886 41.7524 18.0543 41.9818C18.12 42.2113 18.243 42.4202 18.4117 42.589C18.5805 42.7577 18.7894 42.8807 19.0189 42.9464C19.2483 43.0121 19.4907 43.0183 19.7232 42.9644L25.9871 41.5193C26.372 41.4303 26.7242 41.235 27.0035 40.9556L39.783 28.1761Z" fill="#001F3D"/>
</g>
<defs>
<filter id="filter0_d_140_4567" x="0" y="0" width="71" height="71" filterUnits="userSpaceOnUse" color-interpolation-filters="sRGB">
<feFlood flood-opacity="0" result="BackgroundImageFix"/>
<feColorMatrix in="SourceAlpha" type="matrix" values="0 0 0 0 0 0 0 0 0 0 0 0 0 0 0 0 0 0 127 0" result="hardAlpha"/>
<feOffset dx="4" dy="4"/>
<feGaussianBlur stdDeviation="2"/>
<feComposite in2="hardAlpha" operator="out"/>
<feColorMatrix type="matrix" values="0 0 0 0 0 0 0 0 0 0 0 0 0 0 0 0 0 0 0.25 0"/>
<feBlend mode="normal" in2="BackgroundImageFix" result="effect1_dropShadow_140_4567"/>
<feBlend mode="normal" in="SourceGraphic" in2="effect1_dropShadow_140_4567" result="shape"/>
</filter>
</defs>
</svg>
